<svg xmlns="http://www.w3.org/2000/svg" width="1080" height="1440" viewBox="0 0 1080 1440" font-family="'Noto Serif SC','Source Han Serif SC','Songti SC','STSong','SimSun','serif'">
<defs>
<radialGradient id="vig" cx="50%" cy="40%" r="78%"><stop offset="58%" stop-color="#000000" stop-opacity="0"/><stop offset="100%" stop-color="#5a3a1a" stop-opacity="0.18"/></radialGradient>
<filter id="paperNoise" x="0" y="0" width="100%" height="100%"><feTurbulence type="fractalNoise" baseFrequency="0.9" numOctaves="2" stitchTiles="stitch" result="n"/><feColorMatrix in="n" type="matrix" values="0 0 0 0 0 0 0 0 0 0 0 0 0 0 0 0 0 0 0.5 0"/></filter>
</defs>
<rect x="0" y="0" width="1080" height="1440" fill="#f3e9d2"/>
<rect x="0" y="0" width="1080" height="1440" fill="url(#vig)"/>
<rect x="0" y="0" width="1080" height="1440" fill="#000" opacity="0.045" filter="url(#paperNoise)"/>
<rect x="64" y="64" width="952" height="1312" fill="none" stroke="#a9814f" stroke-width="3"/>
<rect x="74" y="74" width="932" height="1292" fill="none" stroke="#a9814f" stroke-width="1" opacity="0.7"/>
<line x1="124" y1="122" x2="500" y2="122" stroke="#a9814f" stroke-width="1.5"/>
<line x1="580" y1="122" x2="956" y2="122" stroke="#a9814f" stroke-width="1.5"/>
<path d="M 540 110 L 552 122 L 540 134 L 528 122 Z" fill="#b23b2e"/>
<text x="540" y="194" text-anchor="middle" font-size="62" font-weight="700" fill="#2e2620" letter-spacing="8">历史上的今天</text>
<text x="540" y="232" text-anchor="middle" font-size="19" fill="#8a6a3a" letter-spacing="6">ON THIS DAY IN HISTORY</text>
<text x="540" y="332" text-anchor="middle" font-size="84" font-weight="700" fill="#9e2b25" letter-spacing="4">9 月 17 日</text>
<line x1="470" y1="360" x2="610" y2="360" stroke="#b23b2e" stroke-width="3"/>
<g transform="rotate(-8 938 160)"><rect x="890" y="112" width="96" height="96" rx="10" fill="#b23b2e" opacity="0.92"/><rect x="896" y="118" width="84" height="84" rx="6" fill="none" stroke="#f3e9d2" stroke-width="2"/><text x="938" y="180" text-anchor="middle" font-size="56" font-weight="700" fill="#f7efdd">史</text></g>
<line x1="104" y1="404" x2="976" y2="404" stroke="#a9814f" stroke-width="1.5"/>
<line x1="104" y1="409" x2="976" y2="409" stroke="#a9814f" stroke-width="0.8" opacity="0.6"/>
<rect x="114" y="450" width="34" height="34" rx="5" fill="#b23b2e"/><text x="131" y="473" text-anchor="middle" font-size="20" font-weight="700" fill="#f7efdd">日</text><text x="164" y="474" font-size="30" font-weight="700" fill="#b23b2e" letter-spacing="3">今日焦点</text>
<rect x="114" y="520" width="78" height="78" rx="8" fill="#b23b2e"/>
<text x="153" y="573" text-anchor="middle" font-size="30" font-weight="700" fill="#f7efdd">2011</text>
<text x="220" y="550" font-size="29" fill="#2e2620">近一千名示威者在美国宪法日進入紐約金融中心華爾街示</text>
<text x="220" y="588" font-size="29" fill="#2e2620">威，拉开了佔領華爾街运动的序幕。</text>
<rect x="114" y="628" width="78" height="78" rx="8" fill="#b23b2e"/>
<text x="153" y="681" text-anchor="middle" font-size="30" font-weight="700" fill="#f7efdd">1978</text>
<text x="220" y="658" font-size="29" fill="#2e2620">埃及总统穆罕默德·安瓦爾·薩達特和以色列总理梅纳赫</text>
<text x="220" y="696" font-size="29" fill="#2e2620">姆·贝京在美国大衛營签订《戴维营协议》，隨後雙方握</text>
<text x="220" y="734" font-size="29" fill="#2e2620">手言和。</text>
<rect x="114" y="772" width="78" height="78" rx="8" fill="#b23b2e"/>
<text x="153" y="825" text-anchor="middle" font-size="30" font-weight="700" fill="#f7efdd">1894</text>
<text x="220" y="802" font-size="29" fill="#2e2620">大日本帝國海軍在西朝鲜湾發生的黃海海戰擊敗清朝北洋</text>
<text x="220" y="840" font-size="29" fill="#2e2620">水師，取得甲午戰爭制海權。</text>
<rect x="114" y="874" width="34" height="34" rx="5" fill="#34516b"/><text x="131" y="897" text-anchor="middle" font-size="20" font-weight="700" fill="#f7efdd">日</text><text x="164" y="898" font-size="30" font-weight="700" fill="#34516b" letter-spacing="3">更多往事</text>
<circle cx="122" cy="936" r="4" fill="#a9814f"/><text x="142" y="944" font-size="25" fill="#5a4a3a">1086　西夏崇宗李乾順建天儀治平年號。</text>
<circle cx="122" cy="980" r="4" fill="#a9814f"/><text x="142" y="988" font-size="25" fill="#5a4a3a">1176　密列奧塞法隆戰役爆發，拜占庭帝國敗於塞爾柱…</text>
<circle cx="122" cy="1024" r="4" fill="#a9814f"/><text x="142" y="1032" font-size="25" fill="#5a4a3a">1382　拉約什一世死後，他的女兒瑪麗亞在沒有男性繼…</text>
<circle cx="122" cy="1068" r="4" fill="#a9814f"/><text x="142" y="1076" font-size="25" fill="#5a4a3a">1567　日本大名織田信長從齋藤龍興手上奪取稻葉山城…</text>
<circle cx="122" cy="1112" r="4" fill="#a9814f"/><text x="142" y="1120" font-size="25" fill="#5a4a3a">1630　來自英國的清教徒在马萨诸塞湾殖民地建立波士…</text>
<line x1="104" y1="1308" x2="976" y2="1308" stroke="#a9814f" stroke-width="1" opacity="0.7"/>
<text x="540" y="1330" text-anchor="middle" font-size="20" fill="#8a6a3a" letter-spacing="2">数据来源 · 维基百科　|　每日更新</text>
</svg>